<svg id="Capa_1" data-name="Capa 1" xmlns="http://www.w3.org/2000/svg" viewBox="0 0 565.77 756.84"><defs><style>.cls-1{fill:#3e4094;}.cls-2{fill:#3e4095;}.cls-3{fill:#2e2f89;}.cls-4{fill:#363e8b;}.cls-5{fill:#353e8b;}.cls-6{fill:#363678;}.cls-7{fill:#38377d;}.cls-8{fill:#fcfcfc;}.cls-9{fill:#02aeee;}.cls-10{fill:#3d4095;}.cls-11{fill:#f8fafb;}.cls-12{fill:#fcfcfb;}.cls-13{fill:#03aeee;}.cls-14{fill:#f7f8f9;}.cls-15{fill:#05aded;}.cls-16{fill:#e8eaf3;}.cls-17{fill:#eceef9;}.cls-18{fill:#303189;}.cls-19{fill:#353573;}.cls-20{fill:#2c2e74;}.cls-21{fill:#2c2e76;}.cls-22{fill:#3095bf;}.cls-23{fill:#275faf;}.cls-24{fill:#7070a6;}.cls-25{fill:#5a5780;}.cls-26{fill:#309bdd;}.cls-27{fill:#8182bc;}.cls-28{fill:#6262a3;}.cls-29{fill:#e9edf6;}.cls-30{fill:#8d8fcf;}.cls-31{fill:#383777;}.cls-32{fill:#c8cbe5;}.cls-33{fill:#5f62a6;}.cls-34{fill:#eaeefb;}.cls-35{fill:#bbbce3;}.cls-36{fill:#e0e3f3;}.cls-37{fill:#8789bd;}.cls-38{fill:#8685c3;}.cls-39{fill:#02aeef;}.cls-40{fill:#dce9f7;}.cls-41{fill:#4484d8;}.cls-42{fill:#2c9ada;}.cls-43{fill:#09adec;}.cls-44{fill:#75d0f1;}.cls-45{fill:#ccf1f6;}.cls-46{fill:#84f1fe;}.cls-47{fill:#3fc8fd;}.cls-48{fill:#139cd8;}.cls-49{fill:#e9f8fc;}.cls-50{fill:#c1f4f9;}.cls-51{fill:#04aded;}.cls-52{fill:#504e92;}.cls-53{fill:#ddddf6;}.cls-54{fill:#686796;}.cls-55{fill:#9c9bc1;}</style></defs><path class="cls-1" d="M7.85,68.21C67.71,31,134.41,12.1,205.33,4.62c49.6,0,99.2-.47,148.8.27C426.27,13.31,495,31.34,556.82,68.28A46.74,46.74,0,0,1,562,89.76c-.45,92.3,1.06,184.61-.79,276.91-2.57,8.67-8.8,12.62-18.3,12.32a28.71,28.71,0,0,1-8.89-3c-69.76-4.37-139.51-5.44-209.11.73-6.51,4.9-6.63,13.22-11.56,19a173.58,173.58,0,0,1-57.82-6.79c-4.18-4.83-7.5-10.42-13.77-13.41-68.75-4.46-137.42-2.91-206-.66a20.12,20.12,0,0,0-5.84,4.87c-12.73,44.72-4.86,60.28,41.29,75.47,39.24,12.92,78.46,25,112.7,48.45,24.08,16.51,43.85,35.7,57.82,60.23,6.11,16.58,23.55,30.69,12.87,50.94a13.56,13.56,0,0,1-11.67,1.94c-2.7-2.11-.16,1.4-2.26-1.19-42.67-52.58-105.15-72.78-169.21-91-36.23-10.32-35.93-11.25-56.53,13-5.25.11-8.82-1.72-9.5-7Q5.36,314,5.41,97.66C5.41,87.79,4.68,77.86,7.85,68.21Z"/><path class="cls-2" d="M307.91,739.21c-25.24,23.56-25.24,23.56-50.4-.31.89-4.67,4.21-8,7-11.7,4.68-8.85,2.33-18.29,2.65-27.52-1.64-23.7,4.76-48.14-8-70.74.42-18.81-4.32-37-8.29-55.2,2.09-19.11-5-38.94,5.18-57.42,15.8-7.66,31.45-3.65,47.13.51,19.4,19.21,6.94,42.92,10.48,64.37-.14,6.83-.18,13.7-2.87,20.21C291,618.13,304.58,639,303,658c1.1,22-1.62,44.12,2.07,66C307.22,728.87,306.9,734.15,307.91,739.21Z"/><path class="cls-3" d="M556.67,371.17l.15-302.89c9.37,2,8.95,8.92,8.95,15.56q0,221.32-.21,442.66c0,2.79-2.56,5.57-3.92,8.36q-5.32,2-8.27-2.57c-7.38-20.74-3.44-42.23-4.59-63.37-1.12-20.39,1.52-40.88-3.67-61.17C541.58,394,548.34,382.15,556.67,371.17Z"/><path class="cls-4" d="M556.87,534.88c1.59-.06,3.18-.06,4.77,0q-104.49,85-209,170c-14.57,11.81-29.79,22.93-44.71,34.37-5.08-2-6.7-5.9-6.93-10.62-2.87-10.38,5.78-14.59,12.38-19.73C368.46,666,423.73,623.21,477.56,579c19.8-16.26,43.19-29.15,58.54-50,2.54-4.53,1.94-9.52,2.75-14.29,1.23-7.27-4.57-20.3,7.13-20.09,13.83.24,6,13.91,7.89,21.61C555.33,522.34,551.59,529.24,556.87,534.88Z"/><path class="cls-5" d="M270.16,732.77l-12.65,6.13C171.89,672.16,86.45,605.21,4.06,535l3.68-.2,12.45-.58c7-3.47,11.67.82,16.4,4.45,70.76,54.38,139.47,111,209.73,166C256,712.14,268.79,718.61,270.16,732.77Z"/><path class="cls-6" d="M7.74,534.77c-1.23,0-2.46.11-3.68.2C-1.46,528.37,1,520.65,1,513.44q-.17-210.51.23-421c0-8.14-5.38-18.53,6.65-24.19Q7.8,301.49,7.74,534.77Z"/><path class="cls-7" d="M354.13,4.89c-49.61,6.3-99.21,6.82-148.8-.27A584.44,584.44,0,0,1,354.13,4.89Z"/><path class="cls-8" d="M545.18,320.12c-32.87,9.23-66.45,2.46-99.67,3.92-15.1-21.35-6.47-44.8-6.94-67.42.8-4.47,3-8.69,3.33-13.27a18.12,18.12,0,0,1,1.09-6c2.17-3.29,5.26-6,7.24-9.45a56.8,56.8,0,0,1,2.85-5.11c2.78-4.15,5.88-8.17,5.65-13.43-.26-7.22-3-13.22-11.27-14.25-17.25-2.16-34.65-1.88-51.93-.23-9.67.92-12.58,7.49-12.18,15.7.21,5.85,4.55,10,7.13,14.88a54.82,54.82,0,0,1,3.15,6.56,60.9,60.9,0,0,1,3.68,10.91c3,17.58-.81,35.75,5.69,53-.74,27.72-.83,27.72-29.11,28-20.22.2-40.47-.79-60.68.58-5.69-16.93-2.49-34.32-2.58-51.46-.42-75.76.4-151.54-.61-227.29-.25-19,1.23-26.61,26.32-23.52,74.57,9.2,144.38,29.31,208.2,66.71,5.53,3.34,4,8.66,4,13.36q.13,102,0,204C548.59,311.1,549.81,316.28,545.18,320.12Z"/><path class="cls-9" d="M270.16,732.77,20.18,534.2c-.82-31.32-.89-31.14,31.7-20.84,33.18,10.48,66.6,20.28,99.74,30.88,39.68,12.7,69.65,36.77,91.57,69.84,19.61,13.42,22.76,33.53,26,53.95,1.94,12.09.83,24.47,4.56,36.32C272.79,713.85,276.16,723.83,270.16,732.77Z"/><path class="cls-9" d="M300.57,518.9c-14.63,2.16-29.11,2.11-43.25-2.64-17.82,4-25.32-8.91-34.86-18.5C215.84,488.56,210,479,206,468.49,201,429.18,220.15,398.69,257,387c18,1.42,37.2-3.93,53.51,7.78,27.94-4.26,35.3,16.08,44.38,33.2,9.51,17.92,7.73,36.42-.91,54.45-5.94,7.82-10.94,16.3-17.63,23.68a80.69,80.69,0,0,1-21.78,12.22C310,519.81,305.18,517.27,300.57,518.9Z"/><path class="cls-10" d="M556.87,534.88c-11.84-10.2-.73-25.06-9.3-38.83-5.48,14.19,3.94,28.13-5.77,39.05-7.76-18.85-20.44-18.07-39-12.21-41.58,13.11-85.07,20.57-122.51,44.39-26.4,16.79-46.12,37.4-59.27,64.49-4.81,9.92-5.79,25.58-24.69,23.61-2.42-10.07,1.58-20.52-5-30.71-8.34-12.84,5.53-15.5,13.74-20.2,12.29-3.46,3.81-14.41,8.51-20.62a105.55,105.55,0,0,1,6.09-13c30.53-53.23,78.5-86,139.63-103.34,5.94-1.68,11.69-3.86,17.54-5.79,54-17.82,54-17.82,57.43-70.23a36,36,0,0,1,2-9.71,12,12,0,0,1,5.21-5.71l15.27-4.92C550.07,425.75,560.65,480.3,556.87,534.88Z"/><path class="cls-11" d="M541.4,376.09c-1.27.61-1.5,1.46-.7,2.56-5.7,10.85-14.89,18.51-26.66,22.9-56.71,21.14-111.46,45.25-155.25,86.52-4.25.66-8.07,0-11.05-3.17,12.69-47.26,2.26-72.51-37.22-90.1l1.71-22.39c2.4-2.75,5.51-3.65,9.28-3.65q104.7,0,209.39,0c3.77,0,6.87.9,9.26,3.66A2.66,2.66,0,0,0,541.4,376.09Z"/><path class="cls-12" d="M140.94,187l-15.68,5.69c-15.6,4.56-15.81-5.7-14.51-14.52,2.51-16.95,1-33.93,2.1-50.85a30.86,30.86,0,0,1,2.81-12.1,16.4,16.4,0,0,1,12.57-9.05c34.8,7.06,35.84,6.63,44.31-18.51a33.32,33.32,0,0,1,7.58-15.93A49.76,49.76,0,0,1,194.87,60.1c16.2-4.8,16.81-4.7,21.16,3.28-5,5.41-5.88,11.32-2.44,17.73,6.54-8.81,18.35,3.46,24.93-5.44,4.52-6.1,10.82-8.14,18.54-6.55,6.84,30.76,5.54,61.59.74,92.43-13.56,11.31-27.47,21.94-47.28,21-3.74,2.09-6.91.39-10.12-1.23-11.74-4.78-22.22-13.67-36.61-9.5C155.07,175.46,146.32,179,140.94,187Z"/><path class="cls-11" d="M257,387c-9.41,8.29-19.21,16.23-28.14,24.94-16.51,16.1-20,35.92-17.3,57.22,2.38,7.59-3.41,8.7-9,9.95-7.51.21-14.45-2.47-19.06-7.31-32.4-34-78-46.65-119.74-65.76-15.23-7-34.17-10.91-38.51-30.33a2,2,0,0,0-.52-2.83c3.23-5.71,9.09-4.06,14.09-4.07q99.44-.15,198.87,0c5.13,0,10.76-1.22,14.71,3.45Q254.69,379.63,257,387Z"/><path class="cls-13" d="M25.23,375.72c20,19.58,46.94,28.79,72.64,38.15,38.89,14.15,71.8,35.44,101.83,61.57,12.69,4.92,17.66,16.55,25.62,25.59,10.15,16.12,23.57,31,23.2,51.22-1.6,6.34-1.67,13.91-12.06,13.3-34.22-55.36-91-80.71-152.59-99.71-12.46-3.85-25.19-7.34-37-12.58C18.15,440.52,10.64,412.36,25.23,375.72Z"/><path class="cls-14" d="M119.82,113.25v9.6c-5.56,9.16-1.71,19.1-2.62,28.65-.79,8.3-.32,17-13.32,16.58-2.17-12.29-19.69-22-6.38-37.14,3.51-4-1.5-5.16-6-7.06-9.07-3.79-27.27,2.54-24.07-17.49.85-5.29-6.59-5.32-7.88-.29-4.14,16.11-19.77,16-31.52,22-6.87-22,1.92-45.2,20.24-54.92,4.6-2.44,9.39-4.6,13.89-7.19C98.85,44.8,137,36.69,178.06,54.79c5,4,4.71,8.8,2.49,13.9-13.77,14.22-31.64,4.53-47.35,7.08C117.65,84.83,132.91,103.47,119.82,113.25Z"/><path class="cls-15" d="M445.59,247.91q0,38.07-.07,76.13c-14,3.9-28.24,2.12-42.42,1.13-6.83-16.27-4.39-33.6-5.66-50.35C394.82,240.4,411.59,231.63,445.59,247.91Z"/><path class="cls-16" d="M66,236.57c-4.07,1.56-8.1,4.32-12.23,4.45-10.35.33-25.78,8.68-29.59-4.2s-5.49-30.62,17.16-35.53c-4.5-6.21-14.17.44-17.1-7.28,5.83-7,14.54-4.62,22.06-5.29,14.18-1.25,29.49-1.46,40.86,6.55,12.35,8.71-4.89,20.2-.6,30.7C82.84,234.81,71.32,230.49,66,236.57Z"/><path class="cls-17" d="M205.05,177.59l5.47,5c1.95,12,1.76,27.17,20.74,10.25,4-3.57,10.61-4.6,16-6.8,14.2,16.82,12.21,33.43-.75,49.9-26,8.3-21-11.5-24.66-23.52a116.08,116.08,0,0,1-43.55-24.66l.54-.88a5.16,5.16,0,0,1-.29-7C186.71,172.32,195.79,174,205.05,177.59Z"/><path class="cls-18" d="M305.36,25.32V314.83l-2.51,0V24.4Z"/><path class="cls-19" d="M545.18,320.12q-.33-115.58-.65-231.15c2.12,2.38,6.07,4.74,6.08,7.12.42,74.5.45,149,.47,223.52,0,.54-1,1.57-1.42,1.53A30.52,30.52,0,0,1,545.18,320.12Z"/><path class="cls-20" d="M540.16,372.42H312.23c3.18-6.74,9.7-6.17,15.83-6.17q98.15-.06,196.28,0C530.48,366.23,537,365.71,540.16,372.42Z"/><path class="cls-21" d="M252.38,372.25l-227.68.64c2.77-7,9.24-6.67,15.43-6.67q99.49,0,199,0C244.55,366.25,249.79,366.74,252.38,372.25Z"/><path class="cls-22" d="M445.59,247.91c-3.53-.29-7.12-.29-10.58-.9-27.6-4.85-36.56,6.24-33.09,31.1,2.15,15.48.9,31.37,1.18,47.06-30,1.61-60,3-89.92-.65,16.8-.41,33.57-1.13,50.34-1.21,34.63-.18,34.63,0,33.34-31.74-4.15-6-2.4-12.79-2.49-19.25-.52-38.53,11.46-45.73,50.85-30.8C447.64,243.53,449.13,245.59,445.59,247.91Z"/><path class="cls-23" d="M273.78,704.35c-10.25-30.08-13.26-62.28-30.59-90.27l10.49-.11c12.67-.21,3.59,11.84,9.88,15.23,15.94,7.55,9.93,21.44,10.49,33.08C274.73,676.27,273.93,690.32,273.78,704.35Z"/><path class="cls-24" d="M178.31,187.76c20-2.43,26.55,19.78,44.53,21.08.33,0,.94,1.32.76,1.82-.25.69-1.13,1.18-1.74,1.76-10.69-.09-22.32-2.4-27.65,10.17-5.28,4.24-10.51,3.73-15.69-.18Z"/><path class="cls-25" d="M103.88,168.08c12.13-2.9,8.19-12.82,10.15-20.17,2.22-8.3-3.69-18.22,5.8-25.06.19,19.28,1.92,38.69-3.67,57.59-2.4,8.12-.56,12.42,9.1,12.21,1,4.26,7,8.5,1,12.82-4.1,3-7.81.3-11.48-2.23C101.49,194,103.42,180.9,103.88,168.08Z"/><path class="cls-26" d="M263.56,629.2,253.67,614c1.15-18.28-12.87-31.86-17.21-48.43,6.56-3.74,5.31-10,5.92-15.73,16.94,2.2,8.7,17.35,14.86,25.09C258.61,593.08,266.43,610.6,263.56,629.2Z"/><path class="cls-27" d="M216,63.38c-6.71-7.07-14.31,2.6-21.21-1-2-3-1.33-6.12-.6-9.26C198.68,30.29,214.15,36,230.6,41.78Z"/><path class="cls-28" d="M124.26,262.48c24,1.13,9.43-18,15.86-26.14.46-.57,1.48-1.31,2-1.18a28.27,28.27,0,0,1,4.32,1.78c8.46,5.56,13.9,11.64,4,20.35-7.26,5.52,5.24,27-18.14,19.49C118.47,277.5,121.07,270.14,124.26,262.48Z"/><path class="cls-29" d="M178.52,222.41l15.69.18c7.45,6,19.54,9.25,15.08,24.89-10.84-14.47-23.8-6.51-36.17-5.39-4.74-4.7-3.87-9.38.08-14.05Z"/><path class="cls-30" d="M118.43,238.77c-.46,1.39,4,10.5-4.07,10.63-12.31.21-13.29-11.16-15.23-19.55-1-4.22-.85-11.91,6.17-11C113.77,220,122.33,224.11,118.43,238.77Z"/><path class="cls-31" d="M257.8,161.55l-.75-92.44c14.17,30.45,4.37,62.07,5.14,93.16a3.31,3.31,0,0,1-2.15.56A7.69,7.69,0,0,1,257.8,161.55Z"/><path class="cls-32" d="M194.22,53.15c5.56,2.79,1.25,6.13.59,9.26a19.26,19.26,0,0,1-11,11.19,7.06,7.06,0,0,1-5.92-5.4l.18-13.41c7.89-11.31-11.26-13.07-9.32-23.72C183.31,33.07,188.6,43.29,194.22,53.15Z"/><path class="cls-33" d="M39.44,285.87c.73-8.77-11.59-16.26-7.22-18.33,11.41-5.42,25-11.18,43.43,2C57,268.29,45.09,271.13,39.44,285.87Z"/><path class="cls-34" d="M124.26,262.48c2.56,4.84,1,11.71,8.08,14.3-4.14,13.78-13.69,7.09-22,5-7.54-1.89-4.93-5.56-3.75-11C109,259.76,115.48,259.89,124.26,262.48Z"/><path class="cls-35" d="M178.74,184a5,5,0,0,1,.11,2.84c-12.64-1.75-25.29-7.9-37.91.08,2.39-10.5,7.63-18.43,20.37-19.57C174.12,166.58,181.13,171,178.74,184Z"/><path class="cls-36" d="M173.2,228q0,7-.08,14.05c-5.23,6.85-9.47,14.71-16,20.3-8.06,6.93-3.8-3.94-6.67-5.1,3-7.54-2.07-13.67-4-20.35C157.72,240.1,164.58,231.78,173.2,228Z"/><path class="cls-37" d="M246.52,235.94c5.32-16.57,15.46-33.07.75-49.9,1.42-.81,3.72-2.59,4.12-2.28C264.39,194.05,261.25,226.7,246.52,235.94Z"/><path class="cls-38" d="M66,236.57c1.77-12.09,13-8.29,20.56-10.59C91.77,249.86,75.42,237.4,66,236.57Z"/><path class="cls-39" d="M296.32,655.38c12.68-3,14.09-15.26,17.26-23.07C335.23,578.86,382,554,435,535.12c29.48-10.5,60.5-16.2,90.36-26,31-10.16,9.14,17.9,16.47,26Q430.91,623.57,319.88,711.91c-6.67,5.28-14.45,9.27-18.9,16.68C288.82,704.77,299.52,679.69,296.32,655.38Z"/><path class="cls-40" d="M257.24,574.91q-7.43-12.55-14.86-25.09c-2-18.26-15.92-31.87-21.89-48.59-1.84-5.28.84-6.72,6-6.11,9.06,8.6,19.06,16,30.87,21.14Q257.28,545.58,257.24,574.91Z"/><path class="cls-41" d="M322.86,576.25l-4,9.1c-4,2.23-7.88,2.32-11.43-.9-5-21.59,7.14-44.76-6.87-65.54,2.51-3.81,6.44-4.35,10.73-4,14.33,16.29,3.79,36.23,9.13,53.84A74.18,74.18,0,0,1,322.86,576.25Z"/><path class="cls-42" d="M307.44,584.45l11.42.9c-2.72,8.49-5.31,17-8.43,25.41-.31.83-3.86.61-5.9.88l.51-7.17Z"/><path class="cls-43" d="M465.27,119.39c8.08,21.59,9.52,41.9-16.26,60.8,7.07-27-29.63-17.29-29.73-37.94C402,146.07,395.53,157.6,394.33,173c-20-15.43-25.52-48.89-11.87-68.61,3.11-4.5,5.8-6.94,12.61-5.54,25.79,5.3,31.72-1.59,24-28.87,12.79-1.74,18.77,7.17,26.22,13.26,3.27,4.88,5.87,10.47,4.45,15.89C446.39,112,456.11,115.31,465.27,119.39Z"/><path class="cls-15" d="M376.36,216.89c-7.38-23.93,2.83-32.57,28.42-29.62a142.17,142.17,0,0,0,34-.05c27.17-3.47,34.59,7.25,27.17,30.18C436,227,406.15,228.31,376.36,216.89Z"/><path class="cls-44" d="M376.36,216.89l89.59.51-10.66,9.91c-22.86,9.48-45.74,10.65-68.68.24Q381.5,222.21,376.36,216.89Z"/><path class="cls-45" d="M465.27,119.39c-3.23.18-7.06-1.68-9.16,2.36-2.56,4.91-6.48,8.3-12.35,5.43-6.18-3-4.09-8.3-1.87-12.72,5.08-10.1,3.91-20.69,3.44-31.25C458.26,92.26,457.49,107.87,465.27,119.39Z"/><path class="cls-46" d="M445.22,241.52c-46.43,1.54-46.43,1.54-48.36,50-10.34-17.25-1.79-36.24-5.71-54.08,18.35-7.81,36.59-8.79,54.68.72A6.77,6.77,0,0,1,445.22,241.52Z"/><path class="cls-47" d="M445.83,238.21l-54.68-.72c-3-.85-5.14-2.36-4.56-5.71,22.83-3.11,45.65-3.6,68.44.37C454.86,238,449.8,237.38,445.83,238.21Z"/><path class="cls-48" d="M455,232.15l-68.44-.37a4.44,4.44,0,0,1,0-4.23l68.68-.24A7.32,7.32,0,0,1,455,232.15Z"/><path class="cls-49" d="M316.65,574.69c-11.63-19.17-3.18-39.9-5.35-59.81l20-10.87c5.12-1.41,8,1.15,10.13,5C341.76,533.69,327.87,553.75,316.65,574.69Z"/><path class="cls-50" d="M226.45,495.12l-5.95,6.11-20.8-25.79c5.22,0,9.4-1.74,11.87-6.27Z"/><path class="cls-50" d="M339,511.22,331.31,504c7.52-4.84,3.75-18.11,16.43-19.11l10.69.19C361.1,499.68,353.79,507.85,339,511.22Z"/><path class="cls-51" d="M339,511.22l19.39-26.13c31.86-39.3,77.93-59.6,124.52-77.93,20.41-8,38.72-18.63,57.75-28.5.32,5.75.81,11.51.92,17.28.93,48.33-4.12,55.8-55.42,69.44C417,483.8,358,514.5,322.86,576.24l-6.21-1.55C315.31,550.84,332.48,532.65,339,511.22Z"/><path class="cls-52" d="M177.69,89.65c.53,12-4.15,22.8-16.85,24.93-9.74,1.63-24,10.6-30.44-6.26-6.91-10.17-1.44-18.63,4.27-27.08C159.26,70.26,168.56,72.08,177.69,89.65Z"/><path class="cls-53" d="M177.69,89.65c-11.59-18.1-27-7.82-41.48-4.89-4.15,1.92-4.56,12.06-9.91,7.63-7.6-6.3-4.83-14.27,4.44-19.15,14.64-10.4,32.13,2.3,47.15-5l5.91,5.4Q180.76,81.63,177.69,89.65Z"/><path class="cls-54" d="M130.74,73.24c-3.88,5.22-6.11,10.79-4.24,17.24l9.71-5.72q-2.91,11.77-5.81,23.56l-10.58,4.93V58.35C133.12,61.83,128,69.2,130.74,73.24Z"/><path class="cls-55" d="M178.74,184c-2.81-8.28-9.31-13.2-17.42-16.65,18.26-10.33,29.52,5.43,43.73,10.2C196.11,179.12,186.08,176.82,178.74,184Z"/></svg>