<?xml version="1.0" encoding="utf-8"?>
<!-- Generator: Adobe Illustrator 26.3.0, SVG Export Plug-In . SVG Version: 6.00 Build 0)  -->
<svg version="1.1" id="Capa_1" xmlns="http://www.w3.org/2000/svg" xmlns:xlink="http://www.w3.org/1999/xlink" x="0px" y="0px"
	 viewBox="0 0 1000 800" style="enable-background:new 0 0 1000 800;" xml:space="preserve">
<style type="text/css">
	.st0{fill:#3E4094;}
	.st1{fill:#3E4095;}
	.st2{fill:#2E2F89;}
	.st3{fill:#363E8B;}
	.st4{fill:#353E8B;}
	.st5{fill:#363678;}
	.st6{fill:#38377D;}
	.st7{fill:#FCFCFC;}
	.st8{fill:#02AEEE;}
	.st9{fill:#3D4095;}
	.st10{fill:#F8FAFB;}
	.st11{fill:#FCFCFB;}
	.st12{fill:#03AEEE;}
	.st13{fill:#F7F8F9;}
	.st14{fill:#05ADED;}
	.st15{fill:#E8EAF3;}
	.st16{fill:#ECEEF9;}
	.st17{fill:#303189;}
	.st18{fill:#353573;}
	.st19{fill:#2C2E74;}
	.st20{fill:#2C2E76;}
	.st21{fill:#3095BF;}
	.st22{fill:#275FAF;}
	.st23{fill:#7070A6;}
	.st24{fill:#5A5780;}
	.st25{fill:#309BDD;}
	.st26{fill:#8182BC;}
	.st27{fill:#6262A3;}
	.st28{fill:#E9EDF6;}
	.st29{fill:#8D8FCF;}
	.st30{fill:#383777;}
	.st31{fill:#C8CBE5;}
	.st32{fill:#5F62A6;}
	.st33{fill:#EAEEFB;}
	.st34{fill:#BBBCE3;}
	.st35{fill:#E0E3F3;}
	.st36{fill:#8789BD;}
	.st37{fill:#8685C3;}
	.st38{fill:#02AEEF;}
	.st39{fill:#DCE9F7;}
	.st40{fill:#4484D8;}
	.st41{fill:#2C9ADA;}
	.st42{fill:#09ADEC;}
	.st43{fill:#75D0F1;}
	.st44{fill:#CCF1F6;}
	.st45{fill:#84F1FE;}
	.st46{fill:#3FC8FD;}
	.st47{fill:#139CD8;}
	.st48{fill:#E9F8FC;}
	.st49{fill:#C1F4F9;}
	.st50{fill:#04ADED;}
	.st51{fill:#504E92;}
	.st52{fill:#DDDDF6;}
	.st53{fill:#686796;}
	.st54{fill:#9C9BC1;}
	.st55{stroke:#FFFFFF;stroke-miterlimit:10;}
</style>
<path class="st0" d="M303.9,182.9c42.5-24.5,89.9-36.9,140.4-41.8c35.2,0,70.5-0.3,105.7,0.2c51.3,5.5,100.1,17.4,144,41.7
	c2.4,4.4,3.7,9.2,3.7,14.1c-0.3,60.7,0.8,121.5-0.6,182.2c-1.8,5.7-6.2,8.3-13,8.1c-2.2-0.3-4.3-1-6.3-2
	c-49.6-2.9-99.2-3.6-148.6,0.5c-4.6,3.2-4.7,8.7-8.2,12.5c-13.9,0.7-27.8-0.9-41.1-4.5c-3-3.2-5.3-6.9-9.8-8.8
	c-48.9-2.9-97.7-1.9-146.4-0.4c-1.6,0.8-3,1.9-4.1,3.2c-9,29.4-3.5,39.7,29.3,49.7c27.9,8.5,55.8,16.5,80.1,31.9
	c17.1,10.9,31.2,23.5,41.1,39.6c4.3,10.9,16.7,20.2,9.1,33.5c-2.4,1.6-5.5,2-8.3,1.3c-1.9-1.4-0.1,0.9-1.6-0.8
	c-30.3-34.6-74.7-47.9-120.2-59.9c-25.8-6.8-25.5-7.4-40.2,8.5c-3.7,0.1-6.3-1.1-6.8-4.6c0-95,0-190,0-284.9
	C302.1,195.7,301.6,189.2,303.9,182.9z"/>
<path class="st1" d="M517.7,624.4c-17.9,15.5-17.9,15.5-35.8-0.2c0.6-3.1,3-5.3,5-7.7c3.3-5.8,1.7-12,1.9-18.1
	c-1.2-15.6,3.4-31.7-5.7-46.5c0.3-12.4-3.1-24.3-5.9-36.3c1.5-12.6-3.5-25.6,3.7-37.8c11.2-5,22.4-2.4,33.5,0.3
	c13.8,12.6,4.9,28.2,7.5,42.4c-0.1,4.5-0.1,9-2,13.3c-14.1,11-4.4,24.7-5.5,37.2c0.8,14.5-1.2,29,1.5,43.4
	C517.2,617.6,517,621.1,517.7,624.4z"/>
<path class="st2" d="M694.5,382.2l0.1-199.3c6.7,1.3,6.4,5.9,6.4,10.2c0,97.1,0,194.2-0.2,291.3c0,1.8-1.8,3.7-2.8,5.5
	c-2.5,0.9-4.5,0.3-5.9-1.7c-5.2-13.6-2.4-27.8-3.3-41.7c-0.8-13.4,1.1-26.9-2.6-40.2C683.8,397.2,688.6,389.4,694.5,382.2z"/>
<path class="st3" d="M694.7,489.9c1.1,0,2.3,0,3.4,0c-49.5,37.3-99,74.6-148.5,111.9c-10.3,7.8-21.2,15.1-31.8,22.6
	c-3.6-1.3-4.8-3.9-4.9-7c-2-6.8,4.1-9.6,8.8-13c39.1-28.2,78.4-56.4,116.7-85.5c14.1-10.7,30.7-19.2,41.6-32.9c1.8-3,1.4-6.3,2-9.4
	c0.9-4.8-3.2-13.4,5.1-13.2c9.8,0.2,4.3,9.1,5.6,14.2C693.6,481.7,690.9,486.2,694.7,489.9z"/>
<path class="st4" d="M490.9,620.2l-9,4c-60.9-43.9-121.6-88-180.1-134.2l2.6-0.1l8.9-0.4c5-2.3,8.3,0.5,11.7,2.9
	c50.3,35.8,99.1,73,149.1,109.2C480.9,606.6,489.9,610.8,490.9,620.2z"/>
<path class="st5" d="M304.4,489.9c-0.9,0-1.8,0.1-2.6,0.1c-3.9-4.3-2.2-9.4-2.2-14.2c-0.1-92.4,0-184.7,0.2-277
	c0-5.4-3.8-12.2,4.7-15.9C304.5,285.2,304.4,387.5,304.4,489.9z"/>
<path class="st6" d="M550.6,141.2c-35.3,4.1-70.5,4.5-105.8-0.2C480,136.9,515.5,137,550.6,141.2z"/>
<path class="st7" d="M686.4,348.6c-23.4,6.1-47.2,1.6-70.8,2.6c-10.7-14-4.6-29.5-4.9-44.4c0.6-2.9,2.1-5.7,2.4-8.7
	c0-1.4,0.3-2.7,0.8-4c1.5-2.2,3.7-4,5.2-6.2c0.6-1.1,1.3-2.3,2-3.4c2-2.7,4.2-5.4,4-8.8c-0.2-4.8-2.1-8.7-8-9.4
	c-12.3-1.4-24.6-1.2-36.9-0.1c-6.9,0.6-8.9,4.9-8.7,10.3c0.2,3.9,3.2,6.6,5.1,9.8c0.8,1.4,1.6,2.8,2.2,4.3c1.1,2.3,2,4.7,2.6,7.2
	c2.1,11.6-0.6,23.5,4,34.9c-0.5,18.2-0.6,18.2-20.7,18.4c-14.4,0.1-28.8-0.5-43.1,0.4c-4-11.1-1.8-22.6-1.8-33.9
	c-0.3-49.9,0.3-99.7-0.4-149.6c-0.2-12.5,0.9-17.5,18.7-15.5c53,6.1,102.6,19.3,148,43.9c3.9,2.2,2.8,5.7,2.8,8.8
	c0.1,44.8,0.1,89.5,0,134.2C688.8,342.7,689.7,346.1,686.4,348.6z"/>
<path class="st8" d="M490.9,620.2L313.3,489.5c-0.6-20.6-0.6-20.5,22.5-13.7c23.6,6.9,47.3,13.3,70.9,20.3
	c28.2,8.4,49.5,24.2,65.1,46c13.9,8.8,16.2,22.1,18.5,35.5c1.4,8,0.6,16.1,3.2,23.9C492.8,607.7,495.2,614.3,490.9,620.2z"/>
<path class="st8" d="M512.5,479.4c-10.4,1.4-20.7,1.4-30.7-1.7c-12.7,2.6-18-5.9-24.8-12.2c-4.7-6-8.9-12.3-11.7-19.3
	c-3.5-25.9,10.1-45.9,36.2-53.6c12.8,0.9,26.4-2.6,38,5.1c19.9-2.8,25.1,10.6,31.5,21.9c6.8,11.8,5.5,24-0.7,35.8
	c-4.2,5.1-7.8,10.7-12.5,15.6c-4.7,3.4-9.9,6.1-15.5,8C519.2,480,515.8,478.4,512.5,479.4z"/>
<path class="st9" d="M694.7,489.9c-8.4-6.7-0.5-16.5-6.6-25.5c-3.9,9.3,2.8,18.5-4.1,25.7c-5.5-12.4-14.5-11.9-27.7-8
	c-29.5,8.6-60.5,13.5-87.1,29.2c-18.8,11-32.8,24.6-42.1,42.4c-3.4,6.5-4.1,16.8-17.5,15.5c-1.7-6.6,1.1-13.5-3.5-20.2
	c-5.9-8.5,3.9-10.2,9.8-13.3c8.7-2.3,2.7-9.5,6-13.6c1.2-2.9,2.7-5.8,4.3-8.5c21.7-35,55.8-56.6,99.2-68c4.2-1.1,8.3-2.5,12.5-3.8
	c38.4-11.7,38.4-11.7,40.8-46.2c0.2-2.2,0.6-4.3,1.4-6.4c0.8-1.6,2-2.9,3.7-3.8l10.8-3.2C689.8,418.1,697.4,454,694.7,489.9z"/>
<path class="st10" d="M683.7,385.5c-0.9,0.4-1.1,1-0.5,1.7c-4,7.1-10.6,12.2-19,15.1c-40.3,13.9-79.2,29.8-110.3,56.9
	c-3,0.4-5.7,0-7.8-2.1c9-31.1,1.6-47.7-26.5-59.3l1.2-14.7c1.7-1.8,3.9-2.4,6.6-2.4c49.6,0,99.2,0,148.8,0c2.7,0,4.9,0.6,6.6,2.4
	C682.3,383.9,682.7,384.9,683.7,385.5C683.6,385.4,683.6,385.4,683.7,385.5z"/>
<path class="st11" d="M399.1,261l-11.1,3.7c-11.1,3-11.2-3.8-10.3-9.6c1.8-11.1,0.7-22.3,1.5-33.5c0.1-2.8,0.8-5.5,2-8
	c1.7-3.2,5.1-5.5,8.9-6c24.7,4.6,25.5,4.4,31.5-12.2c0.8-3.9,2.6-7.5,5.4-10.5c2.9-3.1,6.5-5.7,10.5-7.6c11.5-3.2,12-3.1,15,2.2
	c-3.5,3.6-4.2,7.4-1.7,11.7c4.6-5.8,13,2.3,17.7-3.6c3.2-4,7.7-5.4,13.2-4.3c4.9,20.2,3.9,40.5,0.5,60.8
	c-9.6,7.4-19.5,14.4-33.6,13.8c-2.7,1.4-4.9,0.3-7.2-0.8c-8.3-3.1-15.8-9-26-6.2C409.1,253.4,402.9,255.8,399.1,261z"/>
<path class="st10" d="M481.6,392.6c-6.7,5.5-13.6,10.7-20,16.4c-11.7,10.6-14.2,23.6-12.3,37.6c1.7,5-2.4,5.7-6.4,6.5
	c-5.3,0.1-10.3-1.6-13.5-4.8c-23-22.4-55.4-30.7-85.1-43.3c-10.8-4.6-24.3-7.2-27.4-20c0.5-0.6,0.3-1.4-0.3-1.8c0,0,0,0,0,0
	c2.3-3.8,6.5-2.7,10-2.7c47.1-0.1,94.2-0.1,141.3,0c3.6,0,7.6-0.8,10.5,2.3C479.4,386.2,480.5,389.4,481.6,392.6z"/>
<path class="st12" d="M316.9,385.2c14.2,12.9,33.4,18.9,51.6,25.1c27.6,9.3,51,23.3,72.4,40.5c9,3.2,12.5,10.9,18.2,16.8
	c7.2,10.6,16.8,20.4,16.5,33.7c-1.1,4.2-1.2,9.1-8.6,8.8c-24.3-36.4-64.7-53.1-108.4-65.6c-8.9-2.5-17.9-4.8-26.3-8.3
	C311.8,427.9,306.5,409.3,316.9,385.2z"/>
<path class="st13" d="M384.1,212.5v6.3c-4,6-1.2,12.6-1.9,18.9c-0.6,5.5-0.2,11.2-9.5,10.9c-1.5-8.1-14-14.5-4.5-24.4
	c2.5-2.6-1.1-3.4-4.3-4.6c-6.5-2.5-19.4,1.7-17.1-11.5c0.6-3.5-4.7-3.5-5.6-0.2c-2.9,10.6-14,10.5-22.4,14.5
	c-4.9-14.5,1.4-29.7,14.4-36.1c3.3-1.6,6.7-3,9.9-4.7c26.1-13.9,53.2-19.3,82.4-7.4c3.5,2.6,3.4,5.8,1.8,9.1
	c-9.8,9.4-22.5,3-33.6,4.7C382.5,193.8,393.4,206.1,384.1,212.5z"/>
<path class="st14" d="M615.6,301.1c0,16.7,0,33.4,0,50.1c-10,2.6-20.1,1.4-30.2,0.7c-4.8-10.7-3.1-22.1-4-33.1
	C579.5,296.2,591.4,290.4,615.6,301.1z"/>
<path class="st15" d="M345.8,293.6c-2.9,1-5.8,2.8-8.7,2.9c-7.4,0.2-18.3,5.7-21-2.8c-2.7-8.5-3.9-20.1,12.2-23.4
	c-3.2-4.1-10.1,0.3-12.1-4.8c4.1-4.6,10.3-3,15.7-3.5c10.1-0.8,21-1,29,4.3c8.8,5.7-3.5,13.3-0.4,20.2
	C357.8,292.5,349.6,289.6,345.8,293.6z"/>
<path class="st16" d="M444.6,254.8l3.9,3.3c1.4,7.9,1.2,17.9,14.7,6.7c2.8-2.4,7.5-3,11.4-4.5c10.1,11.1,8.7,22-0.5,32.8
	c-18.5,5.5-14.9-7.6-17.5-15.5c-11.5-3.3-22-8.8-31-16.2l0.4-0.6c-1.4-1.2-1.5-3.3-0.2-4.6C431.6,251.4,438.1,252.5,444.6,254.8z"/>
<path class="st17" d="M515.9,154.6v190.5h-1.8V154L515.9,154.6z"/>
<path class="st18" d="M686.4,348.6c-0.2-50.7-0.3-101.4-0.5-152.1c1.5,1.6,4.3,3.1,4.3,4.7c0.3,49,0.3,98.1,0.3,147.1
	c0,0.4-0.7,1-1,1C688.5,349.1,687.4,348.9,686.4,348.6z"/>
<path class="st19" d="M682.8,383h-162c2.3-4.4,6.9-4.1,11.2-4.1c46.5,0,93,0,139.5,0C675.9,379,680.5,378.6,682.8,383z"/>
<path class="st20" d="M478.3,382.9l-161.8,0.4c2-4.6,6.6-4.4,11-4.4c47.1,0,94.3,0,141.4,0C472.7,379,476.4,379.3,478.3,382.9z"/>
<path class="st21" d="M615.6,301.1c-2.5-0.2-5.1-0.2-7.5-0.6c-19.6-3.2-26,4.1-23.5,20.5c1.5,10.2,0.6,20.6,0.8,31
	c-21.3,1.1-42.6,2-63.9-0.4c11.9-0.3,23.9-0.7,35.8-0.8c24.6-0.1,24.6,0,23.7-20.9c-3-4-1.7-8.4-1.8-12.7
	c-0.4-25.4,8.1-30.1,36.1-20.3C617,298.2,618.1,299.6,615.6,301.1z"/>
<path class="st22" d="M493.5,601.5c-7.3-19.8-9.4-41-21.7-59.4l7.5-0.1c9-0.1,2.5,7.8,7,10c11.3,5,7.1,14.1,7.5,21.8
	C494.2,583,493.6,592.2,493.5,601.5z"/>
<path class="st23" d="M425.6,261.5c14.2-1.6,18.9,13,31.6,13.9c0.2,0,0.7,0.9,0.5,1.2c-0.2,0.5-0.8,0.8-1.2,1.2
	c-7.6-0.1-15.9-1.6-19.6,6.7c-3.8,2.8-7.5,2.5-11.1-0.1L425.6,261.5z"/>
<path class="st24" d="M372.7,248.6c8.6-1.9,5.8-8.4,7.2-13.3c1.6-5.5-2.6-12,4.1-16.5c0.1,12.7,1.4,25.5-2.6,37.9
	c-1.7,5.3-0.4,8.2,6.5,8c0.7,2.8,5,5.6,0.7,8.4c-2.9,2-5.5,0.2-8.2-1.5C371,265.6,372.4,257,372.7,248.6z"/>
<path class="st25" d="M486.2,552l-7-10c0.8-12-9.1-21-12.2-31.9c4.7-2.5,3.8-6.6,4.2-10.4c12,1.5,6.2,11.4,10.6,16.5
	C482.7,528.2,488.3,539.8,486.2,552z"/>
<path class="st26" d="M452.4,179.7c-4.8-4.6-10.2,1.7-15.1-0.7c-1.4-2-1-4-0.4-6.1c3.2-15,14.2-11.3,25.9-7.5L452.4,179.7z"/>
<path class="st27" d="M387.2,310.7c17.1,0.7,6.7-11.8,11.3-17.2c0.3-0.4,1-0.9,1.4-0.8c1.1,0.3,2.1,0.7,3.1,1.2
	c6,3.7,9.9,7.7,2.8,13.4c-5.2,3.6,3.7,17.8-12.9,12.8C383.1,320.6,385,315.7,387.2,310.7z"/>
<path class="st28" d="M425.8,284.3l11.1,0.1c5.3,4,13.9,6.1,10.7,16.4c-7.7-9.5-16.9-4.3-25.7-3.5c-3.4-3.1-2.8-6.2,0.1-9.2
	L425.8,284.3z"/>
<path class="st29" d="M383.1,295.1c-0.3,0.9,2.8,6.9-2.9,7c-8.8,0.1-9.4-7.3-10.8-12.9c-0.7-2.8-0.6-7.8,4.4-7.2
	C379.8,282.7,385.9,285.4,383.1,295.1z"/>
<path class="st30" d="M482.1,244.3l-0.5-60.8c10.1,20,3.1,40.8,3.6,61.3c-0.5,0.3-1,0.4-1.5,0.4
	C483.1,244.9,482.6,244.6,482.1,244.3z"/>
<path class="st31" d="M436.9,172.9c4,1.8,0.9,4,0.4,6.1c-1.4,3.4-4.2,6.1-7.8,7.4c-2.1-0.3-3.7-1.7-4.2-3.6l0.1-8.8
	c5.6-7.4-8-8.6-6.6-15.6C429.2,159.7,433,166.5,436.9,172.9z"/>
<path class="st32" d="M326.9,326.1c0.5-5.8-8.2-10.7-5.1-12.1c8.1-3.6,17.8-7.4,30.9,1.3C339.4,314.5,331,316.4,326.9,326.1z"/>
<path class="st33" d="M387.2,310.7c1.8,3.2,0.7,7.7,5.7,9.4c-2.9,9.1-9.7,4.7-15.6,3.3c-5.4-1.2-3.5-3.7-2.7-7.2
	C376.4,308.9,381,309,387.2,310.7z"/>
<path class="st34" d="M425.9,259c0.2,0.6,0.2,1.2,0.1,1.9c-9-1.1-18-5.2-26.9,0c1.7-6.9,5.4-12.1,14.5-12.9
	C422.7,247.6,427.6,250.5,425.9,259z"/>
<path class="st35" d="M422,288c0,3.1,0,6.1-0.1,9.2c-3.7,4.5-6.7,9.7-11.4,13.4c-5.7,4.6-2.7-2.6-4.7-3.4c2.1-5-1.5-9-2.8-13.4
	C411,296,415.9,290.5,422,288z"/>
<path class="st36" d="M474.1,293.2c3.8-10.9,11-21.8,0.5-32.8c1-0.5,2.6-1.7,2.9-1.5C486.8,265.7,484.6,287.1,474.1,293.2z"/>
<path class="st37" d="M345.8,293.6c1.3-8,9.2-5.5,14.6-7C364.1,302.4,352.5,294.2,345.8,293.6z"/>
<path class="st38" d="M509.5,569.2c9-2,10-10,12.3-15.2c15.4-35.2,48.6-51.5,86.3-64c21-6.9,43-10.7,64.2-17.1
	c22-6.7,6.5,11.8,11.7,17.1c-52.5,38.8-105.1,77.6-157.7,116.3c-4.7,3.5-10.3,6.1-13.4,11C504.2,601.7,511.8,585.2,509.5,569.2z"/>
<path class="st39" d="M481.7,516.3c-3.5-5.5-7-11-10.6-16.5c-1.4-12-11.3-21-15.6-32c-1.3-3.5,0.6-4.4,4.3-4
	c6.4,5.7,13.5,10.5,21.9,13.9C481.8,490.5,481.8,503.4,481.7,516.3z"/>
<path class="st40" d="M528.4,517.2l-2.8,6c-2.8,1.5-5.6,1.5-8.1-0.6c-3.5-14.2,5.1-29.5-4.9-43.1c1.8-2.5,4.6-2.9,7.6-2.6
	c10.2,10.7,2.7,23.8,6.5,35.4C527.3,513.8,527.9,515.5,528.4,517.2z"/>
<path class="st41" d="M517.4,522.6l8.1,0.6c-1.9,5.6-3.8,11.2-6,16.7c-0.2,0.5-2.7,0.4-4.2,0.6l0.4-4.7L517.4,522.6z"/>
<path class="st42" d="M629.6,216.5c5.7,14.2,6.8,27.6-11.6,40c5-17.8-21.1-11.4-21.1-25c-12.3,2.5-16.9,10.1-17.7,20.2
	c-14.2-10.1-18.1-32.2-8.4-45.2c2.2-3,4.1-4.6,9-3.6c18.3,3.5,22.5-1.1,17.1-19c9.1-1.1,13.3,4.7,18.6,8.7c2.3,3.2,4.2,6.9,3.2,10.5
	C616.2,211.7,623.1,213.9,629.6,216.5z"/>
<path class="st14" d="M566.4,280.7c-5.2-15.8,2-21.4,20.2-19.5c8,0.9,16.1,0.9,24.2,0c19.3-2.3,24.6,4.8,19.3,19.9
	C608.8,287.4,587.6,288.2,566.4,280.7z"/>
<path class="st43" d="M566.4,280.7l63.7,0.3l-7.6,6.5c-16.2,6.2-32.5,7-48.8,0.2C571.2,285.4,568.8,283,566.4,280.7z"/>
<path class="st44" d="M629.6,216.5c-2.3,0.1-5-1.1-6.5,1.6c-1.8,3.2-4.6,5.5-8.8,3.6c-4.4-2-2.9-5.5-1.3-8.4
	c3.6-6.6,2.8-13.6,2.4-20.6C624.6,198.7,624,209,629.6,216.5z"/>
<path class="st45" d="M615.3,296.9c-33,1-33,1-34.4,32.9c-7.3-11.4-1.3-23.9-4.1-35.6c13-5.1,26-5.8,38.9,0.5
	C615.8,295.5,615.7,296.2,615.3,296.9z"/>
<path class="st46" d="M615.8,294.7l-38.9-0.5c-2.1-0.6-3.7-1.5-3.2-3.8c16.2-2,32.4-2.4,48.6,0.2
	C622.2,294.6,618.6,294.2,615.8,294.7z"/>
<path class="st47" d="M622.3,290.7l-48.6-0.2c-0.5-0.9-0.5-1.9,0-2.8l48.8-0.2C622.8,288.6,622.7,289.7,622.3,290.7z"/>
<path class="st48" d="M524,516.1c-8.3-12.6-2.3-26.3-3.8-39.4l14.2-7.1c3.6-0.9,5.7,0.8,7.2,3.3C541.8,489.2,531.9,502.4,524,516.1z
	"/>
<path class="st49" d="M459.9,463.8l-4.2,4l-14.8-17c3.7,0,6.7-1.1,8.4-4.1L459.9,463.8z"/>
<path class="st49" d="M539.8,474.4l-5.5-4.8c5.3-3.2,2.7-11.9,11.7-12.6l7.6,0.1C555.5,466.8,550.3,472.2,539.8,474.4z"/>
<path class="st50" d="M539.8,474.4l13.8-17.2c22.6-25.9,55.4-39.2,88.5-51.3c14.5-5.3,27.5-12.3,41-18.8c0.2,3.8,0.6,7.6,0.7,11.4
	c0.7,31.8-2.9,36.7-39.4,45.7c-49.2,12.1-91.1,32.3-116,72.9l-4.4-1C523,500.4,535.2,488.5,539.8,474.4z"/>
<path class="st51" d="M425.2,197c0.4,7.9-3,15-12,16.4c-6.9,1.1-17.1,7-21.6-4.1c-4.9-6.7-1-12.3,3-17.8
	C412.1,184.2,418.7,185.4,425.2,197z"/>
<path class="st52" d="M425.2,197c-8.2-11.9-19.2-5.1-29.5-3.2c-3,1.3-3.2,7.9-7,5c-5.4-4.1-3.4-9.4,3.2-12.6
	c10.4-6.8,22.8,1.5,33.5-3.3l4.2,3.6C428.1,189.9,426.6,193.4,425.2,197z"/>
<path class="st53" d="M391.8,186.2c-2.8,3.4-4.3,7.1-3,11.3l6.9-3.8c-1.4,5.2-2.8,10.3-4.1,15.5l-7.5,3.2v-36.1
	C393.5,178.7,389.9,183.5,391.8,186.2z"/>
<path class="st54" d="M425.9,259c-2-5.4-6.6-8.7-12.4-11c13-6.8,21,3.6,31.1,6.7C438.3,255.8,431.2,254.3,425.9,259z"/>
<rect class="st55" width="16.5" height="800"/>
<rect x="490" y="295.6" transform="matrix(6.123234e-17 -1 1 6.123234e-17 -294.008 1295.5912)" class="st55" width="21.5" height="998.4"/>
<rect x="980.4" y="-0.6" transform="matrix(-1 -1.224647e-16 1.224647e-16 -1 1980.3855 804.9996)" class="st55" width="19.6" height="806.1"/>
<rect x="479.4" y="-480" transform="matrix(-1.836970e-16 1 -1 -1.836970e-16 500.3928 -479.9928)" class="st55" width="21.5" height="980.4"/>
</svg>
