<?xml version="1.0" encoding="iso-8859-1"?>
<!-- Uploaded to: SVG Repo, www.svgrepo.com, Generator: SVG Repo Mixer Tools -->
<svg fill="#000000" height="800px" width="800px" version="1.1" id="Layer_1" xmlns="http://www.w3.org/2000/svg" xmlns:xlink="http://www.w3.org/1999/xlink" 
	 viewBox="0 0 512 512" xml:space="preserve">
<g>
	<g>
		<path d="M490.667,96.003H448V73.411c0-7.926-4.394-15.198-11.409-18.885c-53.857-28.302-126.167-29.939-180.737-4.874
			c-56.068-25.088-128.43-23.44-180.719,5.021C68.272,58.409,64,65.597,64,73.411v22.592H21.333C9.551,96.003,0,105.554,0,117.336
			v341.333c0,11.782,9.551,21.333,21.333,21.333h469.333c11.782,0,21.333-9.551,21.333-21.333V117.336
			C512,105.554,502.449,96.003,490.667,96.003z M405.333,86.964v30.372v246.092c-1.462-0.455-2.929-0.891-4.398-1.315
			c-0.473-0.136-0.947-0.266-1.42-0.399c-1.004-0.283-2.009-0.562-3.016-0.831c-0.554-0.148-1.108-0.291-1.662-0.434
			c-0.944-0.244-1.889-0.483-2.835-0.715c-0.564-0.138-1.127-0.275-1.692-0.409c-0.976-0.231-1.954-0.454-2.932-0.672
			c-0.518-0.116-1.035-0.234-1.553-0.346c-1.191-0.257-2.384-0.502-3.578-0.74c-0.3-0.06-0.599-0.125-0.899-0.183
			c-1.489-0.29-2.981-0.564-4.473-0.824c-0.415-0.072-0.831-0.137-1.246-0.207c-1.085-0.183-2.171-0.361-3.257-0.527
			c-0.545-0.084-1.091-0.161-1.637-0.241c-0.967-0.141-1.935-0.277-2.903-0.406c-0.572-0.076-1.145-0.15-1.718-0.221
			c-0.967-0.121-1.934-0.234-2.901-0.342c-0.55-0.061-1.099-0.124-1.649-0.182c-1.079-0.112-2.158-0.213-3.238-0.31
			c-0.426-0.038-0.852-0.081-1.278-0.117c-1.5-0.126-2.999-0.237-4.498-0.332c-0.282-0.018-0.564-0.029-0.846-0.046
			c-1.219-0.073-2.437-0.137-3.655-0.19c-0.524-0.023-1.047-0.038-1.571-0.057c-0.984-0.035-1.968-0.066-2.952-0.088
			c-0.572-0.013-1.144-0.022-1.715-0.03c-0.954-0.014-1.908-0.021-2.861-0.022c-0.562-0.001-1.123-0.002-1.684,0.002
			c-1.016,0.007-2.032,0.023-3.046,0.044c-0.483,0.01-0.966,0.016-1.449,0.029c-1.452,0.04-2.902,0.091-4.35,0.16
			c-0.039,0.002-0.078,0.003-0.117,0.005c-1.485,0.071-2.966,0.162-4.446,0.264c-0.475,0.033-0.948,0.073-1.422,0.109
			c-1.011,0.077-2.021,0.158-3.029,0.249c-0.553,0.05-1.105,0.105-1.657,0.159c-0.94,0.093-1.878,0.191-2.816,0.296
			c-0.56,0.063-1.12,0.127-1.68,0.194c-0.961,0.116-1.92,0.241-2.877,0.37c-0.513,0.069-1.028,0.136-1.54,0.209
			c-1.155,0.165-2.306,0.342-3.456,0.527c-0.304,0.049-0.609,0.092-0.913,0.142c-1.448,0.239-2.892,0.494-4.331,0.764
			c-0.393,0.074-0.783,0.155-1.175,0.231c-1.05,0.204-2.099,0.412-3.143,0.632c-0.521,0.11-1.04,0.226-1.56,0.34
			c-0.921,0.202-1.841,0.409-2.758,0.624c-0.544,0.128-1.086,0.257-1.629,0.389c-0.914,0.223-1.825,0.453-2.734,0.689
			c-0.515,0.133-1.03,0.265-1.544,0.403c-1.01,0.271-2.016,0.553-3.02,0.84c-0.398,0.114-0.798,0.222-1.195,0.339
			c-1.355,0.397-2.706,0.806-4.049,1.233V86.792C315.656,70.585,365.748,70.601,405.333,86.964z M106.667,86.792
			c38.322-16.207,88.415-16.192,128,0.171v276.465c-0.4-0.124-0.802-0.24-1.202-0.362c-0.569-0.173-1.138-0.345-1.707-0.514
			c-0.915-0.271-1.832-0.535-2.75-0.794c-0.547-0.155-1.093-0.311-1.641-0.461c-1.007-0.276-2.017-0.542-3.027-0.805
			c-0.454-0.118-0.908-0.241-1.363-0.356c-1.46-0.37-2.922-0.727-4.387-1.067c-0.156-0.036-0.314-0.069-0.47-0.105
			c-1.312-0.302-2.626-0.592-3.942-0.87c-0.496-0.105-0.993-0.202-1.489-0.303c-0.98-0.2-1.961-0.397-2.943-0.584
			c-0.569-0.108-1.138-0.212-1.708-0.316c-0.922-0.168-1.844-0.332-2.767-0.489c-0.582-0.099-1.163-0.196-1.746-0.29
			c-0.932-0.151-1.864-0.294-2.796-0.433c-0.56-0.083-1.121-0.169-1.681-0.248c-1.018-0.144-2.037-0.277-3.055-0.406
			c-0.467-0.059-0.934-0.124-1.401-0.18c-1.482-0.179-2.964-0.346-4.447-0.495c-0.121-0.012-0.241-0.021-0.362-0.033
			c-1.362-0.135-2.724-0.257-4.086-0.367c-0.498-0.04-0.996-0.073-1.494-0.109c-0.992-0.073-1.983-0.143-2.975-0.203
			c-0.567-0.034-1.134-0.063-1.702-0.093c-0.929-0.049-1.857-0.093-2.785-0.13c-0.584-0.023-1.167-0.045-1.751-0.063
			c-0.93-0.03-1.86-0.052-2.79-0.07c-0.562-0.011-1.123-0.023-1.685-0.03c-1.012-0.012-2.022-0.013-3.033-0.01
			c-0.471,0.001-0.941-0.003-1.412,0.002c-1.476,0.013-2.95,0.038-4.422,0.082c-0.079,0.002-0.157,0.007-0.236,0.009
			c-1.391,0.042-2.781,0.099-4.169,0.169c-0.489,0.024-0.976,0.057-1.465,0.085c-0.983,0.056-1.966,0.115-2.947,0.185
			c-0.56,0.04-1.119,0.085-1.679,0.129c-0.914,0.072-1.827,0.149-2.738,0.233c-0.575,0.053-1.15,0.108-1.724,0.166
			c-0.913,0.092-1.823,0.191-2.734,0.295c-0.552,0.063-1.105,0.124-1.656,0.192c-0.984,0.12-1.966,0.251-2.947,0.385
			c-0.467,0.064-0.934,0.123-1.4,0.19c-1.44,0.207-2.877,0.427-4.309,0.664c-0.042,0.007-0.085,0.015-0.127,0.022
			c-1.389,0.231-2.774,0.479-4.155,0.739c-0.467,0.088-0.932,0.184-1.398,0.275c-0.96,0.188-1.919,0.379-2.874,0.581
			c-0.539,0.114-1.076,0.233-1.613,0.351c-0.886,0.195-1.771,0.394-2.653,0.601c-0.551,0.129-1.102,0.261-1.652,0.395
			c-0.881,0.215-1.76,0.437-2.637,0.664c-0.53,0.137-1.06,0.273-1.588,0.414c-0.943,0.253-1.882,0.516-2.82,0.783
			c-0.448,0.128-0.899,0.25-1.346,0.381c-1.378,0.403-2.751,0.818-4.117,1.252V117.336V86.792z M469.333,437.336H42.667V138.669H64
			v256c0,16.224,17.392,26.51,31.61,18.695c42.831-23.543,101.777-23.193,151.15,0.533c0.101,0.049,0.205,0.089,0.307,0.136
			c0.247,0.114,0.494,0.226,0.745,0.331c0.059,0.024,0.117,0.051,0.176,0.075c0.115,0.047,0.23,0.089,0.346,0.134
			c0.259,0.101,0.52,0.197,0.783,0.288c0.016,0.006,0.033,0.011,0.05,0.016c0.004,0.002,0.009,0.003,0.013,0.004
			c0.165,0.056,0.33,0.111,0.496,0.163c0.262,0.082,0.526,0.159,0.792,0.231c0.187,0.051,0.373,0.101,0.56,0.147
			c0.248,0.06,0.497,0.114,0.747,0.166c0.199,0.041,0.398,0.082,0.596,0.117c0.248,0.044,0.498,0.08,0.748,0.115
			c0.194,0.027,0.389,0.054,0.583,0.076c0.266,0.03,0.534,0.051,0.802,0.071c0.173,0.012,0.346,0.026,0.519,0.034
			c0.295,0.014,0.59,0.019,0.886,0.021c0.142,0.001,0.285,0.002,0.427,0c0.322-0.005,0.644-0.019,0.967-0.039
			c0.115-0.007,0.23-0.014,0.345-0.023c0.338-0.026,0.676-0.063,1.014-0.106c0.1-0.013,0.201-0.026,0.301-0.04
			c0.337-0.048,0.674-0.105,1.011-0.17c0.107-0.021,0.213-0.042,0.319-0.064c0.32-0.067,0.64-0.141,0.959-0.223
			c0.132-0.034,0.262-0.071,0.393-0.107c0.288-0.08,0.575-0.164,0.861-0.257c0.182-0.059,0.361-0.124,0.541-0.188
			c0.234-0.083,0.469-0.165,0.702-0.257c0.278-0.109,0.551-0.229,0.823-0.35c0.14-0.062,0.281-0.118,0.421-0.184
			c0.431-0.202,0.856-0.416,1.273-0.645c0.003-0.002,0.007-0.003,0.01-0.005c42.831-23.543,101.777-23.193,151.15,0.533
			c14.163,6.806,30.573-3.515,30.573-19.228v-256h21.333V437.336z"/>
	</g>
</g>
</svg>