<?xml version="1.0" encoding="utf-8"?>
<svg viewBox="0 0 469.249 500.992" xmlns="http://www.w3.org/2000/svg">
  <ellipse style="stroke: rgb(0, 0, 0); fill: rgb(255, 255, 255);" cx="234.129" cy="251.984" rx="235.121" ry="249.138"/>
  <path class="cls-1" d="M 122.391 130.851 C 145.948 116.061 172.197 108.55 200.106 105.577 C 219.626 105.577 239.145 105.39 258.664 105.684 C 287.054 109.031 314.101 116.196 338.43 130.878 C 339.775 133.519 340.474 136.446 340.468 139.416 C 340.291 176.101 340.885 212.789 340.157 249.474 C 339.146 252.92 336.694 254.49 332.955 254.371 C 331.733 254.17 330.551 253.767 329.457 253.178 C 302.004 251.442 274.555 251.016 247.165 253.468 C 244.603 255.416 244.556 258.722 242.616 261.02 C 234.935 261.42 227.242 260.508 219.862 258.321 C 218.217 256.401 216.91 254.18 214.443 252.991 C 187.387 251.218 160.363 251.835 133.375 252.729 C 132.494 253.22 131.713 253.878 131.077 254.665 C 126.067 272.438 129.164 278.623 147.326 284.66 C 162.768 289.795 178.202 294.596 191.677 303.917 C 201.153 310.479 208.933 318.106 214.431 327.855 C 216.835 334.445 223.698 340.053 219.495 348.102 C 218.162 349.055 216.471 349.339 214.903 348.872 C 213.84 348.034 214.84 349.429 214.014 348.399 C 197.221 327.501 172.634 319.473 147.424 312.231 C 133.166 308.13 133.284 307.76 125.177 317.398 C 123.111 317.442 121.707 316.715 121.439 314.616 C 121.42 257.232 121.418 199.879 121.431 142.556 C 121.431 138.633 121.144 134.686 122.391 130.851 Z" style="fill: rgb(62, 64, 148);"/>
  <path class="cls-2" d="M 240.475 397.54 C 230.542 406.904 230.542 406.904 220.641 397.417 C 220.991 395.561 222.297 394.238 223.396 392.767 C 225.237 389.25 224.312 385.497 224.438 381.829 C 223.793 372.409 226.312 362.696 221.29 353.713 C 221.455 346.237 219.59 339.008 218.028 331.774 C 218.85 324.179 216.06 316.297 220.067 308.953 C 226.285 305.908 232.443 307.502 238.614 309.155 C 246.248 316.79 241.345 326.214 242.738 334.739 C 242.682 337.454 242.667 340.184 241.609 342.771 C 233.82 349.417 239.164 357.712 238.543 365.263 C 238.976 374.007 237.905 382.799 239.357 391.495 C 240.204 393.431 240.078 395.529 240.475 397.54 Z" style="fill: rgb(62, 64, 149);"/>
  <path class="cls-3" d="M 338.37 251.263 L 338.43 130.878 C 342.117 131.673 341.952 134.424 341.952 137.063 C 341.952 195.705 341.924 254.351 341.869 312.998 C 341.869 314.107 340.862 315.212 340.326 316.321 C 338.93 316.851 337.846 316.51 337.072 315.3 C 334.167 307.057 335.718 298.516 335.265 290.113 C 334.825 282.009 335.863 273.865 333.821 265.801 C 332.432 260.336 335.092 255.626 338.37 251.263 Z" style="fill: rgb(46, 47, 137);"/>
  <path class="cls-4" d="M 338.449 316.329 C 339.075 316.305 339.701 316.305 340.326 316.329 C 312.913 338.851 285.497 361.373 258.078 383.896 C 252.344 388.59 246.355 393.01 240.483 397.556 C 238.484 396.761 237.846 395.211 237.756 393.335 C 236.626 389.21 240.031 387.536 242.627 385.494 C 264.304 368.443 286.054 351.436 307.238 333.865 C 315.03 327.402 324.234 322.279 330.275 313.992 C 331.275 312.192 331.039 310.208 331.358 308.312 C 331.842 305.423 329.559 300.244 334.163 300.328 C 339.606 300.423 336.525 305.857 337.269 308.917 C 337.843 311.345 336.371 314.088 338.449 316.329 Z" style="fill: rgb(54, 62, 139);"/>
  <path class="cls-5" d="M 225.619 394.98 L 220.641 397.417 C 186.947 370.891 153.323 344.282 120.9 316.377 L 122.348 316.297 L 127.247 316.067 C 130.002 314.688 131.84 316.393 133.702 317.836 C 161.548 339.449 188.587 361.953 216.237 383.812 C 220.047 386.781 225.08 389.353 225.619 394.98 Z" style="fill: rgb(53, 62, 139);"/>
  <path class="cls-6" d="M 122.348 316.285 C 121.864 316.285 121.38 316.329 120.9 316.365 C 118.728 313.742 119.695 310.674 119.695 307.808 C 119.651 252.03 119.681 196.253 119.786 140.481 C 119.786 137.246 117.669 133.116 122.403 130.866 C 122.382 192.667 122.364 254.474 122.348 316.285 Z" style="fill: rgb(54, 54, 120);"/>
  <path class="cls-7" d="M 258.664 105.684 C 239.141 108.188 219.622 108.395 200.106 105.577 C 219.55 103.092 239.229 103.129 258.664 105.684 Z" style="fill: rgb(56, 55, 125);"/>
  <path class="cls-8" d="M 333.849 230.973 C 320.913 234.641 307.699 231.95 294.625 232.531 C 288.683 224.045 292.079 214.725 291.894 205.734 C 292.209 203.958 293.075 202.28 293.204 200.46 C 293.213 199.647 293.358 198.84 293.634 198.075 C 294.488 196.768 295.704 195.691 296.483 194.319 C 296.822 193.624 297.197 192.946 297.604 192.289 C 298.698 190.639 299.918 189.041 299.828 186.951 C 299.726 184.081 298.647 181.697 295.392 181.287 C 288.604 180.429 281.757 180.54 274.956 181.196 C 271.151 181.561 270.006 184.172 270.163 187.435 C 270.246 189.761 271.954 191.41 272.969 193.35 C 273.439 194.19 273.854 195.061 274.209 195.957 C 274.826 197.353 275.311 198.805 275.657 200.293 C 276.838 207.28 275.338 214.502 277.896 221.358 C 277.605 232.376 277.569 232.376 266.441 232.487 C 258.483 232.566 250.514 232.173 242.561 232.717 C 240.321 225.988 241.581 219.077 241.545 212.265 C 241.38 182.154 241.703 152.034 241.305 121.928 C 241.207 114.376 241.789 111.352 251.663 112.579 C 281.009 116.236 308.482 124.229 333.597 139.094 C 335.773 140.421 335.171 142.536 335.171 144.404 C 335.205 171.43 335.205 198.457 335.171 225.484 C 335.191 227.387 335.671 229.446 333.849 230.973 Z" style="fill: rgb(252, 252, 252);"/>
  <path class="cls-9" d="M 225.619 394.98 L 127.243 316.059 C 126.921 303.611 126.893 303.682 139.719 307.776 C 152.776 311.941 165.928 315.836 178.97 320.049 C 194.585 325.097 206.379 334.663 215.006 347.807 C 222.723 353.141 223.962 361.134 225.237 369.25 C 226.001 374.055 225.564 378.975 227.032 383.685 C 226.654 387.461 227.981 391.427 225.619 394.98 Z" style="fill: rgb(2, 174, 238);"/>
  <path class="cls-9" d="M 237.586 309.978 C 231.829 310.836 226.131 310.817 220.566 308.929 C 213.554 310.518 210.602 305.387 206.848 301.576 C 204.242 297.919 201.944 294.12 200.37 289.942 C 198.402 274.319 205.939 262.2 220.44 257.554 C 227.524 258.119 235.08 255.992 241.498 260.646 C 252.494 258.953 255.39 267.037 258.963 273.842 C 262.706 280.964 262.005 288.317 258.605 295.483 C 256.268 298.591 254.3 301.961 251.667 304.894 C 249.077 306.953 246.185 308.591 243.096 309.751 C 241.297 310.34 239.401 309.33 237.586 309.978 Z" style="fill: rgb(2, 174, 238);"/>
  <path class="cls-10" d="M 338.449 316.329 C 333.79 312.275 338.162 306.369 334.789 300.896 C 332.633 306.536 336.34 312.077 332.518 316.416 C 329.465 308.925 324.475 309.235 317.171 311.564 C 300.808 316.774 283.693 319.739 268.959 329.207 C 258.57 335.88 250.809 344.071 245.635 354.838 C 243.742 358.781 243.356 365.005 235.918 364.222 C 234.966 360.22 236.54 356.067 233.95 352.016 C 230.668 346.913 236.127 345.856 239.357 343.988 C 244.194 342.613 240.857 338.26 242.706 335.793 C 243.388 334.017 244.189 332.291 245.103 330.625 C 257.118 309.469 275.995 296.444 300.052 289.553 C 302.39 288.885 304.653 288.019 306.955 287.252 C 328.206 280.169 328.206 280.169 329.555 259.339 C 329.64 258.021 329.905 256.723 330.342 255.48 C 330.759 254.515 331.48 253.717 332.393 253.21 L 338.402 251.254 C 335.773 272.955 339.937 294.636 338.449 316.329 Z" style="fill: rgb(61, 64, 149);"/>
  <path class="cls-11" d="M 332.361 253.218 C 331.862 253.46 331.771 253.798 332.086 254.235 C 329.843 258.548 326.226 261.592 321.594 263.337 C 299.277 271.739 277.731 281.322 260.498 297.725 C 258.825 297.987 257.322 297.725 256.149 296.465 C 261.143 277.681 257.039 267.645 241.502 260.654 L 242.175 251.755 C 243.119 250.662 244.343 250.305 245.827 250.305 C 273.296 250.305 300.763 250.305 328.229 250.305 C 329.713 250.305 330.933 250.662 331.873 251.76 C 331.589 252.296 331.813 252.965 332.361 253.218 Z" style="fill: rgb(248, 250, 251);"/>
  <path class="cls-12" d="M 174.767 178.064 L 168.596 180.325 C 162.457 182.138 162.374 178.06 162.886 174.554 C 163.874 167.818 163.28 161.069 163.713 154.344 C 163.754 152.682 164.13 151.045 164.818 149.535 C 165.767 147.575 167.624 146.225 169.765 145.938 C 183.46 148.744 183.869 148.573 187.202 138.581 C 187.616 136.238 188.646 134.051 190.185 132.25 C 191.812 130.35 193.783 128.782 195.99 127.627 C 202.365 125.719 202.605 125.759 204.317 128.931 C 202.349 131.081 202.003 133.43 203.357 135.977 C 205.931 132.476 210.578 137.353 213.168 133.816 C 214.946 131.391 217.426 130.581 220.464 131.212 C 223.155 143.438 222.644 155.691 220.755 167.949 C 215.419 172.444 209.945 176.669 202.149 176.295 C 200.677 177.126 199.429 176.45 198.166 175.807 C 193.546 173.907 189.422 170.373 183.759 172.03 C 180.327 173.477 176.884 174.884 174.767 178.064 Z" style="fill: rgb(252, 252, 251);"/>
  <path class="cls-11" d="M 220.44 257.554 C 216.737 260.849 212.88 264.005 209.366 267.466 C 202.869 273.865 201.495 281.743 202.558 290.209 C 203.495 293.225 201.216 293.666 199.016 294.163 C 196.061 294.247 193.33 293.181 191.515 291.258 C 178.765 277.745 160.82 272.717 144.394 265.121 C 138.4 262.339 130.947 260.785 129.239 253.067 C 129.498 252.701 129.405 252.191 129.034 251.942 C 130.305 249.673 132.612 250.328 134.579 250.324 C 160.667 250.285 186.755 250.285 212.841 250.324 C 214.86 250.324 217.076 249.839 218.63 251.696 C 219.231 253.648 219.834 255.601 220.44 257.554 Z" style="fill: rgb(248, 250, 251);"/>
  <path class="cls-13" d="M 129.231 253.071 C 137.101 260.853 147.703 264.513 157.817 268.233 C 173.122 273.858 186.073 282.319 197.891 292.705 C 202.885 294.66 204.84 299.283 207.973 302.876 C 211.967 309.282 217.249 315.197 217.103 323.233 C 216.473 325.753 216.446 328.761 212.357 328.519 C 198.89 306.516 176.545 296.441 152.308 288.889 C 147.404 287.359 142.394 285.972 137.747 283.889 C 126.445 278.826 123.49 267.633 129.231 253.071 Z" style="fill: rgb(3, 174, 238);"/>
  <path class="cls-14" d="M 166.455 148.752 L 166.455 152.567 C 164.267 156.208 165.783 160.159 165.424 163.955 C 165.113 167.253 165.298 170.711 160.182 170.544 C 159.328 165.659 152.434 161.8 157.672 155.783 C 159.053 154.193 157.081 153.732 155.311 152.976 C 151.741 151.47 144.579 153.986 145.838 146.026 C 146.172 143.923 143.245 143.911 142.737 145.91 C 141.108 152.313 134.957 152.27 130.333 154.654 C 127.629 145.91 131.089 136.689 138.298 132.826 C 140.108 131.856 141.993 130.998 143.764 129.968 C 158.203 121.546 173.216 118.323 189.375 125.517 C 191.342 127.106 191.228 129.014 190.354 131.041 C 184.936 136.693 177.903 132.842 171.721 133.856 C 165.601 137.456 171.607 144.865 166.455 148.752 Z" style="fill: rgb(247, 248, 249);"/>
  <path class="cls-15" d="M 294.656 202.273 C 294.656 212.36 294.648 222.446 294.629 232.531 C 289.12 234.081 283.516 233.373 277.935 232.98 C 275.248 226.513 276.208 219.625 275.708 212.968 C 274.677 199.287 281.276 195.802 294.656 202.273 Z" style="fill: rgb(5, 173, 237);"/>
  <path class="cls-16" d="M 145.276 197.766 C 143.673 198.385 142.088 199.483 140.462 199.534 C 136.389 199.665 130.317 202.984 128.818 197.865 C 127.318 192.746 126.657 185.695 135.571 183.743 C 133.8 181.275 129.994 183.918 128.841 180.85 C 131.136 178.068 134.563 179.014 137.522 178.747 C 143.103 178.251 149.128 178.167 153.602 181.351 C 158.463 184.812 151.678 189.379 153.367 193.552 C 151.902 197.066 147.369 195.349 145.276 197.766 Z" style="fill: rgb(232, 234, 243);"/>
  <path class="cls-17" d="M 199.996 174.324 L 202.149 176.311 C 202.916 181.081 202.841 187.11 210.311 180.385 C 211.885 178.966 214.486 178.557 216.607 177.682 C 222.195 184.367 221.412 190.969 216.312 197.515 C 206.08 200.814 208.048 192.944 206.607 188.167 C 200.257 186.197 194.409 182.853 189.469 178.366 L 189.682 178.016 C 188.931 177.261 188.881 176.049 189.567 175.234 C 192.779 172.229 196.352 172.897 199.996 174.324 Z" style="fill: rgb(236, 238, 249);"/>
  <path class="cls-18" d="M 239.472 113.804 L 239.472 228.87 L 238.484 228.87 L 238.484 113.439 L 239.472 113.804 Z" style="fill: rgb(48, 49, 137);"/>
  <path class="cls-19" d="M 333.849 230.973 C 333.762 200.347 333.677 169.724 333.593 139.102 C 334.427 140.048 335.982 140.985 335.985 141.932 C 336.151 171.542 336.163 201.152 336.171 230.77 C 336.171 230.984 335.777 231.394 335.612 231.378 C 335.015 231.288 334.426 231.152 333.849 230.973 Z" style="fill: rgb(53, 53, 115);"/>
  <path class="cls-20" d="M 331.873 251.76 L 242.175 251.76 C 243.427 249.08 245.992 249.307 248.405 249.307 C 274.155 249.291 299.903 249.291 325.648 249.307 C 328.064 249.299 330.63 249.092 331.873 251.76 Z" style="fill: rgb(44, 46, 116);"/>
  <path class="cls-21" d="M 218.622 251.691 L 129.023 251.946 C 130.113 249.164 132.658 249.295 135.095 249.295 C 161.196 249.295 187.301 249.295 213.408 249.295 C 215.541 249.307 217.603 249.502 218.622 251.691 Z" style="fill: rgb(44, 46, 118);"/>
  <path class="cls-22" d="M 294.656 202.273 C 293.268 202.157 291.854 202.157 290.493 201.915 C 279.631 199.987 276.106 204.395 277.471 214.275 C 278.317 220.428 277.825 226.744 277.935 232.98 C 266.129 233.619 254.324 234.172 242.549 232.722 C 249.16 232.558 255.76 232.272 262.36 232.24 C 275.987 232.169 275.987 232.24 275.48 219.625 C 273.847 217.241 274.535 214.542 274.5 211.975 C 274.295 196.66 279.01 193.799 294.511 199.733 C 295.463 200.532 296.05 201.35 294.656 202.273 Z" style="fill: rgb(48, 149, 191);"/>
  <path class="cls-23" d="M 227.043 383.685 C 223.01 371.73 221.825 358.932 215.006 347.807 L 219.134 347.763 C 224.119 347.68 220.546 352.469 223.022 353.817 C 229.295 356.818 226.93 362.338 227.15 366.965 C 227.418 372.525 227.103 378.109 227.043 383.685 Z" style="fill: rgb(39, 95, 175);"/>
  <path class="cls-24" d="M 189.473 178.366 C 197.343 177.4 199.921 186.227 206.997 186.744 C 207.127 186.744 207.367 187.269 207.296 187.468 C 207.198 187.741 206.851 187.937 206.611 188.167 C 202.404 188.131 197.828 187.213 195.73 192.209 C 193.652 193.894 191.594 193.691 189.556 192.137 L 189.473 178.366 Z" style="fill: rgb(112, 112, 166);"/>
  <path class="cls-25" d="M 160.182 170.544 C 164.956 169.391 163.405 165.449 164.176 162.528 C 165.05 159.229 162.724 155.286 166.459 152.567 C 166.534 160.23 167.215 167.945 165.015 175.456 C 164.07 178.684 164.795 180.393 168.596 180.309 C 168.99 182.003 171.351 183.688 168.99 185.405 C 167.376 186.597 165.916 185.524 164.472 184.518 C 159.242 180.846 160.002 175.639 160.182 170.544 Z" style="fill: rgb(90, 87, 128);"/>
  <path class="cls-26" d="M 223.022 353.817 L 219.13 347.775 C 219.582 340.51 214.065 335.113 212.357 328.527 C 214.939 327.04 214.447 324.553 214.687 322.275 C 221.353 323.15 218.11 329.171 220.535 332.247 C 221.074 339.461 224.151 346.424 223.022 353.817 Z" style="fill: rgb(48, 155, 221);"/>
  <path class="cls-27" d="M 204.306 128.931 C 201.665 126.121 198.674 129.964 195.958 128.533 C 195.171 127.341 195.435 126.101 195.722 124.853 C 197.489 115.779 203.577 118.049 210.051 120.346 L 204.306 128.931 Z" style="fill: rgb(129, 130, 188);"/>
  <path class="cls-28" d="M 168.202 208.064 C 177.647 208.512 171.914 200.909 174.444 197.674 C 174.625 197.448 175.027 197.154 175.231 197.205 C 175.816 197.393 176.385 197.63 176.931 197.912 C 180.261 200.123 182.401 202.539 178.505 206.001 C 175.648 208.194 180.567 216.732 171.367 213.747 C 165.924 214.033 166.947 211.108 168.202 208.064 Z" style="fill: rgb(98, 98, 163);"/>
  <path class="cls-29" d="M 189.556 192.137 L 195.73 192.209 C 198.662 194.594 203.42 195.885 201.665 202.102 C 197.399 196.351 192.299 199.514 187.43 199.959 C 185.565 198.091 185.907 196.231 187.462 194.375 L 189.556 192.137 Z" style="fill: rgb(233, 237, 246);"/>
  <path class="cls-30" d="M 165.908 198.64 C 165.727 199.193 167.482 202.813 164.307 202.865 C 159.462 202.948 159.077 198.429 158.313 195.094 C 157.92 193.418 157.978 190.361 160.741 190.722 C 164.074 191.18 167.443 192.813 165.908 198.64 Z" style="fill: rgb(141, 143, 207);"/>
  <path class="cls-31" d="M 220.755 167.949 L 220.46 131.208 C 226.036 143.311 222.18 155.878 222.483 168.235 C 222.234 168.405 221.936 168.483 221.636 168.457 C 221.317 168.339 221.019 168.167 220.755 167.949 Z" style="fill: rgb(56, 55, 119);"/>
  <path class="cls-32" d="M 195.734 124.865 C 197.922 125.974 196.226 127.301 195.966 128.545 C 195.214 130.581 193.64 132.198 191.637 132.993 C 190.495 132.835 189.568 131.981 189.308 130.847 L 189.378 125.517 C 192.484 121.022 184.947 120.322 185.711 116.09 C 191.441 116.884 193.523 120.946 195.734 124.865 Z" style="fill: rgb(200, 203, 229);"/>
  <path class="cls-33" d="M 134.823 217.36 C 135.11 213.874 130.262 210.897 131.982 210.075 C 136.472 207.921 141.82 205.631 149.073 210.869 C 141.734 210.373 137.047 211.502 134.823 217.36 Z" style="fill: rgb(95, 98, 166);"/>
  <path class="cls-34" d="M 168.202 208.064 C 169.21 209.987 168.596 212.717 171.382 213.747 C 169.753 219.224 165.995 216.565 162.724 215.734 C 159.758 214.983 160.784 213.524 161.249 211.363 C 162.197 206.982 164.748 207.034 168.202 208.064 Z" style="fill: rgb(234, 238, 251);"/>
  <path class="cls-35" d="M 189.642 176.871 C 189.765 177.235 189.78 177.627 189.686 178 C 184.712 177.304 179.733 174.86 174.767 178.032 C 175.707 173.859 177.769 170.707 182.783 170.254 C 187.824 169.948 190.583 171.705 189.642 176.871 Z" style="fill: rgb(187, 188, 227);"/>
  <path class="cls-36" d="M 187.462 194.359 C 187.462 196.214 187.452 198.075 187.43 199.944 C 185.372 202.666 183.704 205.79 181.134 208.012 C 177.962 210.766 179.638 206.446 178.509 205.985 C 179.69 202.988 177.694 200.552 176.935 197.897 C 181.37 199.169 184.07 195.862 187.462 194.359 Z" style="fill: rgb(224, 227, 243);"/>
  <path class="cls-37" d="M 216.316 197.515 C 218.409 190.929 222.4 184.372 216.611 177.682 C 217.17 177.361 218.075 176.653 218.232 176.776 C 223.348 180.866 222.113 193.843 216.316 197.515 Z" style="fill: rgb(135, 137, 189);"/>
  <path class="cls-38" d="M 145.276 197.766 C 145.972 192.961 150.391 194.47 153.367 193.557 C 155.417 203.047 148.982 198.096 145.276 197.766 Z" style="fill: rgb(134, 133, 195);"/>
  <path class="cls-39" d="M 235.914 364.222 C 240.904 363.03 241.459 358.157 242.706 355.053 C 251.226 333.809 269.632 323.929 290.489 316.425 C 302.091 312.251 314.298 309.986 326.049 306.091 C 338.248 302.052 329.646 313.205 332.531 316.425 C 303.43 339.86 274.315 363.282 245.185 386.69 C 242.561 388.788 239.499 390.374 237.748 393.319 C 232.962 383.852 237.173 373.884 235.914 364.222 Z" style="fill: rgb(2, 174, 239);"/>
  <path class="cls-40" d="M 220.535 332.239 C 218.586 328.914 216.636 325.59 214.687 322.267 C 213.9 315.01 208.422 309.6 206.072 302.955 C 205.348 300.856 206.403 300.284 208.433 300.526 C 211.999 303.945 215.935 306.886 220.582 308.929 C 220.561 316.697 220.545 324.467 220.535 332.239 Z" style="fill: rgb(220, 233, 247);"/>
  <path class="cls-41" d="M 246.358 332.772 L 244.784 336.389 C 243.21 337.275 241.683 337.311 240.286 336.031 C 238.318 327.45 243.096 318.241 237.583 309.982 C 238.57 308.468 240.117 308.253 241.805 308.392 C 247.444 314.867 243.296 322.792 245.398 329.791 C 245.771 330.767 246.091 331.761 246.358 332.772 Z" style="fill: rgb(68, 132, 216);"/>
  <path class="cls-42" d="M 240.29 336.031 L 244.784 336.389 C 243.714 339.763 242.695 343.145 241.467 346.488 C 241.345 346.818 239.948 346.73 239.145 346.837 L 239.346 343.988 L 240.29 336.031 Z" style="fill: rgb(44, 154, 218);"/>
  <path class="cls-43" d="M 302.401 151.192 C 305.581 159.773 306.148 167.845 296.003 175.357 C 298.785 164.626 284.342 168.485 284.303 160.278 C 277.503 161.796 274.956 166.379 274.484 172.499 C 266.614 166.367 264.441 153.068 269.813 145.23 C 271.037 143.442 272.096 142.472 274.776 143.029 C 284.925 145.135 287.259 142.397 284.22 131.554 C 289.254 130.863 291.607 134.404 294.539 136.825 C 295.826 138.764 296.849 140.985 296.29 143.14 C 294.971 148.255 298.797 149.571 302.401 151.192 Z" style="fill: rgb(9, 173, 236);"/>
  <path class="cls-15" d="M 267.412 189.944 C 264.508 180.433 268.526 176.998 278.596 178.171 C 283.042 178.705 287.534 178.698 291.977 178.152 C 302.669 176.772 305.589 181.033 302.669 190.146 C 290.883 193.962 279.136 194.482 267.412 189.944 Z" style="fill: rgb(5, 173, 237);"/>
  <path class="cls-44" d="M 267.412 189.944 L 302.669 190.146 L 298.474 194.085 C 289.478 197.853 280.474 198.318 271.446 194.18 C 270.106 192.765 268.761 191.353 267.412 189.944 Z" style="fill: rgb(117, 208, 241);"/>
  <path class="cls-45" d="M 302.401 151.192 C 301.131 151.264 299.623 150.525 298.797 152.13 C 297.789 154.082 296.247 155.429 293.936 154.288 C 291.504 153.096 292.327 150.989 293.201 149.233 C 295.2 145.218 294.74 141.009 294.554 136.813 C 299.643 140.409 299.34 146.614 302.401 151.192 Z" style="fill: rgb(204, 241, 246);"/>
  <path class="cls-46" d="M 294.511 199.733 C 276.239 200.345 276.239 200.345 275.48 219.606 C 271.411 212.75 274.776 205.202 273.233 198.111 C 280.454 195.007 287.632 194.618 294.751 198.397 C 294.786 198.856 294.703 199.315 294.511 199.733 Z" style="fill: rgb(132, 241, 254);"/>
  <path class="cls-47" d="M 294.751 198.417 L 273.233 198.131 C 272.052 197.793 271.21 197.193 271.438 195.862 C 280.423 194.626 289.403 194.431 298.372 196.009 C 298.305 198.334 296.314 198.087 294.751 198.417 Z" style="fill: rgb(63, 200, 253);"/>
  <path class="cls-48" d="M 298.36 196.009 L 271.427 195.862 C 271.145 195.337 271.145 194.705 271.427 194.18 L 298.454 194.085 C 298.64 194.719 298.606 195.397 298.36 196.009 Z" style="fill: rgb(19, 156, 216);"/>
  <path class="cls-49" d="M 243.915 332.152 C 239.337 324.532 242.663 316.294 241.809 308.38 L 249.68 304.06 C 251.695 303.5 252.828 304.517 253.666 306.047 C 253.796 315.856 248.33 323.829 243.915 332.152 Z" style="fill: rgb(233, 248, 252);"/>
  <path class="cls-50" d="M 208.418 300.526 L 206.077 302.955 L 197.891 292.705 C 199.945 292.705 201.59 292.013 202.562 290.212 L 208.418 300.526 Z" style="fill: rgb(193, 244, 249);"/>
  <path class="cls-50" d="M 252.71 306.926 L 249.684 304.056 C 252.643 302.132 251.159 296.858 256.149 296.46 L 260.356 296.536 C 261.407 302.339 258.53 305.586 252.71 306.926 Z" style="fill: rgb(193, 244, 249);"/>
  <path class="cls-51" d="M 252.71 306.926 L 260.341 296.54 C 272.879 280.92 291.009 272.852 309.344 265.566 C 317.375 262.387 324.581 258.162 332.07 254.239 C 332.196 256.525 332.389 258.814 332.432 261.107 C 332.798 280.316 330.811 283.285 310.623 288.706 C 283.406 296.027 260.187 308.229 246.358 332.768 L 243.915 332.152 C 243.387 322.672 250.144 315.443 252.71 306.926 Z" style="fill: rgb(4, 173, 237);"/>
  <path class="cls-52" d="M 189.229 139.372 C 189.438 144.141 187.596 148.434 182.598 149.28 C 178.765 149.928 173.154 153.494 170.619 146.792 C 167.9 142.75 170.052 139.388 172.299 136.029 C 181.976 131.665 185.636 132.389 189.229 139.372 Z" style="fill: rgb(80, 78, 146);"/>
  <path class="cls-53" d="M 189.229 139.372 C 184.668 132.178 178.604 136.264 172.905 137.428 C 171.272 138.191 171.111 142.221 169.006 140.461 C 166.014 137.957 167.104 134.789 170.753 132.85 C 176.514 128.716 183.397 133.764 189.308 130.863 L 191.633 133.009 C 190.836 135.126 190.034 137.247 189.229 139.372 Z" style="fill: rgb(221, 221, 246);"/>
  <path class="cls-54" d="M 170.753 132.85 C 169.226 134.925 168.348 137.138 169.084 139.702 L 172.905 137.428 C 172.142 140.547 171.379 143.669 170.619 146.792 L 166.455 148.752 L 166.455 126.932 C 171.689 128.315 169.674 131.244 170.753 132.85 Z" style="fill: rgb(104, 103, 150);"/>
  <path class="cls-55" d="M 189.642 176.871 C 188.536 173.581 185.978 171.625 182.787 170.254 C 189.973 166.148 194.404 172.412 199.996 174.308 C 196.478 174.932 192.531 174.018 189.642 176.871 Z" style="fill: rgb(156, 155, 193);"/>
</svg>